<?xml version="1.0" standalone="no"?>
<!DOCTYPE svg PUBLIC "-//W3C//DTD SVG 20010904//EN"
 "http://www.w3.org/TR/2001/REC-SVG-20010904/DTD/svg10.dtd">
<svg version="1.0" xmlns="http://www.w3.org/2000/svg"
 width="485.000000pt" height="485.000000pt" viewBox="0 0 485.000000 485.000000"
 preserveAspectRatio="xMidYMid meet">
<metadata>
Created by potrace 1.11, written by Peter Selinger 2001-2013
</metadata>
<g transform="translate(0.000000,485.000000) scale(0.100000,-0.100000)"
fill="#000000" stroke="none">
<path d="M2235 4844 c-496 -53 -893 -204 -1265 -480 -135 -100 -384 -349 -484
-484 -245 -330 -402 -710 -463 -1119 -24 -160 -24 -512 0 -672 61 -409 218
-789 463 -1119 100 -135 349 -384 484 -484 330 -245 710 -402 1119 -463 160
-24 512 -24 672 0 409 61 789 218 1119 463 135 100 384 349 484 484 245 330
402 710 463 1119 24 160 24 512 0 672 -61 409 -218 789 -463 1119 -100 135
-349 384 -484 484 -328 243 -710 402 -1111 461 -101 15 -452 27 -534 19z m-95
-457 c129 -28 162 -32 295 -31 129 0 170 5 290 31 179 39 247 46 328 33 136
-21 227 -82 277 -184 64 -129 49 -276 -41 -416 -24 -37 -112 -134 -203 -225
-170 -169 -221 -224 -196 -210 8 5 98 64 199 132 333 223 442 257 575 179 86
-51 136 -144 144 -271 5 -92 -7 -195 -44 -360 -36 -156 -40 -260 -19 -465 41
-405 2 -561 -160 -641 -60 -29 -70 -31 -142 -27 -171 10 -339 118 -697 447
-56 51 -93 78 -99 72 -5 -5 -8 -38 -5 -73 5 -77 33 -139 95 -208 28 -31 43
-57 41 -68 -36 -135 -334 -1080 -339 -1075 -8 8 -359 1072 -359 1087 0 5 18
28 39 51 62 68 93 138 99 224 3 50 1 72 -6 70 -6 -2 -77 -63 -159 -135 -190
-169 -240 -210 -344 -277 -213 -138 -376 -155 -498 -50 -111 94 -135 257 -96
633 20 194 17 257 -27 464 -42 201 -45 369 -9 460 43 107 140 180 237 179 108
-1 208 -50 492 -240 l187 -126 -190 194 c-105 107 -210 223 -233 259 -144 219
-93 472 112 566 110 50 230 51 456 1z m-562 -2680 c93 -52 200 -143 257 -215
47 -60 47 -61 2 -116 l-24 -30 -66 52 c-35 29 -69 52 -73 52 -5 -1 -56 -64
-114 -140 l-105 -140 -45 45 c-25 25 -75 64 -110 88 -35 23 -66 47 -67 53 -7
20 25 42 94 65 90 29 140 55 152 78 7 12 7 47 1 102 -6 46 -10 101 -10 123 0
45 0 45 108 -17z m1815 22 c-1 -13 -7 -69 -14 -124 l-11 -99 25 -22 c14 -12
47 -30 74 -40 190 -70 194 -75 94 -140 -35 -23 -85 -63 -111 -89 l-47 -46 -97
130 c-53 71 -103 135 -111 141 -12 10 -26 3 -77 -39 -35 -28 -66 -51 -70 -51
-3 0 -21 18 -38 40 -32 40 -32 41 -14 68 27 42 154 165 209 202 68 47 168 100
180 96 6 -1 9 -14 8 -27z m-1592 -441 c227 -203 312 -267 438 -327 73 -35 80
-36 186 -36 103 1 115 3 179 33 134 63 292 181 482 364 40 37 76 68 81 68 5 0
41 -48 80 -107 39 -60 109 -153 154 -207 l82 -100 -64 -59 c-35 -33 -107 -94
-159 -136 -251 -203 -432 -303 -644 -357 -90 -23 -115 -26 -226 -21 -144 5
-241 32 -401 113 -164 82 -403 253 -558 400 l-64 60 86 107 c48 59 117 152
154 207 36 55 69 100 73 100 3 0 58 -46 121 -102z"/>
<path d="M1830 4369 c-113 -20 -205 -82 -252 -172 -15 -29 -23 -66 -26 -122
-4 -77 -2 -83 37 -160 51 -102 107 -169 339 -407 183 -188 281 -302 269 -314
-9 -9 -73 30 -358 217 -443 292 -522 317 -639 200 -32 -32 -53 -65 -65 -101
-27 -80 -16 -242 29 -440 42 -183 45 -261 16 -435 -41 -245 -36 -379 17 -497
28 -63 86 -123 129 -134 14 -4 54 -4 90 -1 118 9 272 103 540 327 211 177 314
260 324 260 18 0 23 -76 12 -171 -14 -114 -51 -225 -99 -292 l-34 -48 117
-372 c64 -205 127 -408 141 -451 17 -54 28 -75 33 -65 11 20 250 872 250 891
0 9 -7 21 -16 29 -23 19 -60 97 -78 165 -20 72 -32 283 -17 304 12 17 18 13
281 -212 214 -183 334 -272 440 -325 68 -35 82 -38 155 -38 96 0 129 19 175
98 64 112 76 301 34 522 -30 156 -25 283 20 480 34 155 37 180 34 285 -3 93
-8 123 -25 156 -25 48 -82 101 -130 121 -84 35 -211 -25 -548 -257 -209 -144
-333 -222 -347 -218 -19 7 84 130 286 342 299 314 352 398 344 546 -9 159
-113 265 -285 290 -84 11 -168 1 -338 -42 -185 -46 -301 -45 -515 4 -176 41
-261 50 -340 37z m630 -396 c12 -32 27 -90 33 -130 11 -67 13 -72 32 -65 11 4
45 7 75 7 66 0 108 -26 136 -82 19 -41 31 -141 19 -170 -6 -17 -7 -17 -21 1
-25 34 -68 56 -111 56 -100 0 -103 -9 -103 -325 l0 -255 209 0 c128 0 220 4
240 11 56 20 59 78 7 140 -14 17 -26 34 -26 39 0 12 66 30 110 30 79 0 139
-75 140 -176 l0 -50 75 -11 c73 -10 166 -48 172 -69 5 -14 -98 -60 -180 -80
l-64 -16 10 -48 c17 -89 -14 -162 -83 -190 -33 -14 -155 -9 -171 7 -5 5 4 17
21 28 70 47 79 138 17 175 -29 18 -52 20 -254 20 l-223 0 0 -222 c0 -300 20
-401 98 -489 l30 -35 -101 -366 c-56 -202 -103 -366 -104 -364 -2 1 -50 166
-108 365 l-106 363 24 31 c75 99 87 164 87 480 l0 237 -225 0 c-182 0 -232 -3
-255 -15 -76 -39 -64 -132 24 -186 27 -17 28 -19 10 -26 -10 -4 -54 -8 -96 -8
-85 0 -121 17 -147 70 -14 29 -18 118 -7 153 6 17 -2 22 -61 36 -85 22 -185
66 -180 80 7 22 98 59 170 69 l75 11 5 62 c3 39 13 76 26 97 38 62 122 84 198
52 l36 -15 -31 -33 c-36 -38 -55 -82 -46 -109 12 -40 60 -48 289 -48 l215 0 0
240 c0 258 -5 292 -51 324 -45 31 -97 19 -156 -37 -30 -28 -33 -29 -40 -11 -4
10 -8 42 -7 69 1 123 106 215 213 187 46 -11 40 -21 59 95 13 76 46 153 66
153 9 0 23 -23 36 -57z"/>
<path d="M2410 3215 l0 -285 -305 0 c-264 0 -305 -2 -305 -15 0 -13 41 -15
305 -15 l305 0 0 -545 c0 -538 0 -545 20 -545 20 0 20 7 20 545 l0 545 310 0
c269 0 310 2 310 15 0 13 -41 15 -310 15 l-310 0 0 285 c0 278 0 285 -20 285
-20 0 -20 -7 -20 -285z"/>
<path d="M1660 1115 c-21 -22 -22 -28 -12 -66 11 -43 2 -79 -18 -79 -13 0 -13
23 0 36 7 7 4 16 -9 28 -19 17 -20 17 -35 -7 -28 -42 7 -97 63 -97 11 0 29 12
41 27 18 23 20 35 14 79 -4 35 -2 54 6 59 17 10 25 -2 11 -18 -14 -18 11 -42
34 -33 24 9 18 52 -11 75 -35 27 -55 26 -84 -4z"/>
<path d="M3087 1102 l-26 -27 60 -94 60 -94 21 21 c17 17 19 24 9 36 -16 19 4
32 25 15 12 -10 18 -9 32 5 16 17 13 22 -62 92 -44 41 -82 74 -86 74 -3 0 -18
-12 -33 -28z m96 -105 c-6 -10 -25 10 -45 48 -7 14 -1 11 20 -9 17 -16 29 -34
25 -39z"/>
<path d="M1740 973 l-64 -86 34 -29 c19 -15 38 -28 42 -28 15 0 21 30 8 44 -8
11 -9 20 0 35 9 17 15 19 31 11 15 -9 21 -7 25 5 4 9 2 21 -4 27 -7 7 -7 16 1
29 9 14 15 15 30 7 15 -7 22 -7 28 3 6 10 -1 22 -23 42 -18 15 -35 27 -38 27
-3 0 -35 -39 -70 -87z"/>
<path d="M2984 1016 c-35 -27 -40 -35 -29 -49 8 -11 15 -13 22 -6 8 8 28 -11
68 -61 49 -62 59 -69 73 -58 10 7 19 13 21 15 2 1 -20 34 -48 74 -38 54 -48
76 -40 85 12 15 4 34 -14 33 -7 0 -31 -15 -53 -33z"/>
<path d="M1849 903 c-67 -108 -64 -100 -41 -112 17 -9 24 -4 53 44 18 30 34
53 36 51 2 -2 -9 -29 -23 -60 -38 -84 -20 -94 46 -25 l51 54 -37 -58 c-34 -52
-36 -59 -22 -73 16 -16 30 -1 121 136 23 33 22 37 -12 54 -27 14 -29 14 -56
-14 -36 -37 -41 -33 -18 15 17 36 17 37 -7 56 -14 10 -28 19 -31 19 -4 0 -31
-39 -60 -87z"/>
<path d="M2863 929 c-18 -12 -33 -23 -33 -25 0 -1 26 -44 58 -94 59 -91 59
-91 81 -73 l22 18 -27 38 c-14 21 -23 41 -20 45 4 3 13 -3 20 -14 40 -57 50
-64 69 -50 18 14 17 16 -7 55 -15 23 -33 41 -42 41 -8 0 -12 4 -9 10 3 5 -1
23 -10 40 -19 37 -54 40 -102 9z m67 -56 c0 -13 -3 -13 -15 -3 -8 7 -15 19
-15 27 0 13 3 13 15 3 8 -7 15 -19 15 -27z"/>
<path d="M2757 859 l-38 -20 47 -87 c26 -48 50 -91 54 -95 4 -5 26 1 48 12 29
15 40 26 35 37 -4 11 -13 13 -33 9 -23 -5 -30 -2 -35 16 -4 13 -2 24 5 29 20
12 4 39 -18 33 -26 -6 -39 27 -17 43 9 7 13 18 9 28 -8 20 -10 20 -57 -5z"/>
<path d="M2028 777 l-48 -92 22 -18 c22 -19 22 -19 43 23 17 37 23 41 47 36
20 -4 33 0 47 15 26 28 35 67 20 86 -13 15 -62 43 -76 43 -4 0 -29 -42 -55
-93z m78 -5 c-20 -20 -22 -1 -4 31 11 20 12 21 16 3 2 -10 -3 -26 -12 -34z"/>
<path d="M2170 714 c-32 -99 -36 -124 -21 -124 5 0 16 -3 24 -6 11 -4 18 8 28
45 7 30 17 47 22 42 5 -5 3 -26 -4 -51 -11 -35 -10 -43 2 -51 22 -14 31 -6 46
37 10 27 11 44 4 55 -8 13 -6 18 8 22 23 6 38 62 21 82 -6 7 -31 20 -55 29
l-45 15 -30 -95z m90 22 c0 -8 -7 -19 -15 -26 -16 -13 -18 -8 -9 27 6 23 24
22 24 -1z"/>
<path d="M2641 801 c-10 -7 -6 -27 24 -102 21 -52 41 -98 45 -102 12 -13 81
25 77 43 -1 8 -12 14 -23 13 -17 -2 -26 11 -50 75 -28 75 -44 91 -73 73z"/>
<path d="M2555 773 c-11 -3 -24 -9 -29 -13 -9 -9 2 -191 14 -210 11 -18 50 -2
50 20 0 27 17 34 25 10 7 -22 21 -25 44 -11 12 8 8 26 -25 110 -21 56 -43 100
-49 100 -5 -1 -19 -3 -30 -6z m44 -135 c1 -5 -6 -8 -14 -8 -11 0 -15 11 -14
43 l1 42 13 -35 c7 -19 14 -38 14 -42z"/>
<path d="M2336 693 c-4 -38 -9 -87 -12 -109 l-6 -42 46 -3 c32 -3 47 0 51 9 9
24 5 32 -15 32 -15 0 -20 7 -20 25 0 18 5 25 20 25 13 0 20 7 20 20 0 11 -7
20 -15 20 -9 0 -15 9 -15 25 0 18 5 25 20 25 24 0 27 25 4 34 -9 3 -28 6 -44
6 -27 0 -28 -2 -34 -67z"/>
</g>
</svg>
